HIERARCHY
ROOT Root
{
  OFFSET 0.0 0.0 0.0
  CHANNELS 6 Xposition Yposition Zposition Zrotation Yrotation Xrotation
  JOINT Hips
  {
    OFFSET 0.0 100.0 0.0
    CHANNELS 6 Xposition Yposition Zposition Zrotation Yrotation Xrotation
    JOINT Spine1
    {
      OFFSET 5.003913 -0.037094 -0.013727
      CHANNELS 3 Zrotation Yrotation Xrotation
      JOINT Spine2
      {
        OFFSET 7.125363 -1e-06 0.0
        CHANNELS 3 Zrotation Yrotation Xrotation
        JOINT Chest
        {
          OFFSET 7.594027 1e-06 0.0
          CHANNELS 3 Zrotation Yrotation Xrotation
          JOINT Neck1
          {
            OFFSET 26.313086 -0.460272 -0.181672
            CHANNELS 3 Zrotation Yrotation Xrotation
            JOINT Neck2
            {
              OFFSET 8.045911 0.0 0.0
              CHANNELS 3 Zrotation Yrotation Xrotation
              JOINT Head
              {
                OFFSET 6.432774 0.0 0.0
                CHANNELS 3 Zrotation Yrotation Xrotation
                JOINT HeadEnd
                {
                  OFFSET 16.169773 0.06451 0.00362
                  CHANNELS 3 Zrotation Yrotation Xrotation
                }
                JOINT Jaw
                {
                  OFFSET 0.108741 3.12938 0.002639
                  CHANNELS 3 Zrotation Yrotation Xrotation
                }
                JOINT LeftEye
                {
                  OFFSET 4.45173 8.166359 3.206392
                  CHANNELS 3 Zrotation Yrotation Xrotation
                }
                JOINT RightEye
                {
                  OFFSET 4.436895 8.135758 -3.222429
                  CHANNELS 3 Zrotation Yrotation Xrotation
                }
              }
            }
          }
          JOINT LeftShoulder
          {
            OFFSET 23.218927 5.195579 1.621656
            CHANNELS 3 Zrotation Yrotation Xrotation
            JOINT LeftArm
            {
              OFFSET 15.902118 2e-06 -2e-06
              CHANNELS 3 Zrotation Yrotation Xrotation
              JOINT LeftForeArm
              {
                OFFSET 28.739307 0.0 -1e-06
                CHANNELS 3 Zrotation Yrotation Xrotation
                JOINT LeftHand
                {
                  OFFSET 27.093981 -4e-06 0.0
                  CHANNELS 3 Zrotation Yrotation Xrotation
                  JOINT LeftHandThumb1
                  {
                    OFFSET 2.276781 3.380274 0.83384
                    CHANNELS 3 Zrotation Yrotation Xrotation
                    JOINT LeftHandThumb2
                    {
                      OFFSET 4.705309 -1e-06 -1e-06
                      CHANNELS 3 Zrotation Yrotation Xrotation
                      JOINT LeftHandThumb3
                      {
                        OFFSET 2.798515 0.0 3e-06
                        CHANNELS 3 Zrotation Yrotation Xrotation
                        JOINT LeftHandThumbEnd
                        {
                          OFFSET 3.180793 4e-06 -4e-06
                          CHANNELS 3 Zrotation Yrotation Xrotation
                        }
                      }
                    }
                  }
                  JOINT LeftHandIndex1
                  {
                    OFFSET 3.247786 2.352677 0.137192
                    CHANNELS 3 Zrotation Yrotation Xrotation
                    JOINT LeftHandIndex2
                    {
                      OFFSET 6.367095 1e-06 0.0
                      CHANNELS 3 Zrotation Yrotation Xrotation
                      JOINT LeftHandIndex3
                      {
                        OFFSET 3.662364 0.0 0.0
                        CHANNELS 3 Zrotation Yrotation Xrotation
                        JOINT LeftHandIndex4
                        {
                          OFFSET 2.329242 4e-06 -4e-06
                          CHANNELS 3 Zrotation Yrotation Xrotation
                          JOINT LeftHandIndexEnd
                          {
                            OFFSET 2.767823 1e-06 0.0
                            CHANNELS 3 Zrotation Yrotation Xrotation
                          }
                        }
                      }
                    }
                  }
                  JOINT LeftHandMiddle1
                  {
                    OFFSET 3.163612 0.945023 -0.406112
                    CHANNELS 3 Zrotation Yrotation Xrotation
                    JOINT LeftHandMiddle2
                    {
                      OFFSET 6.276789 3e-06 0.0
                      CHANNELS 3 Zrotation Yrotation Xrotation
                      JOINT LeftHandMiddle3
                      {
                        OFFSET 4.35652 -1e-06 4e-06
                        CHANNELS 3 Zrotation Yrotation Xrotation
                        JOINT LeftHandMiddle4
                        {
                          OFFSET 2.996877 0.0 8e-06
                          CHANNELS 3 Zrotation Yrotation Xrotation
                          JOINT LeftHandMiddleEnd
                          {
                            OFFSET 2.323256 3e-06 -4e-06
                            CHANNELS 3 Zrotation Yrotation Xrotation
                          }
                        }
                      }
                    }
                  }
                  JOINT LeftHandRing1
                  {
                    OFFSET 2.882606 -0.309162 0.107445
                    CHANNELS 3 Zrotation Yrotation Xrotation
                    JOINT LeftHandRing2
                    {
                      OFFSET 6.033198 0.0 4e-06
                      CHANNELS 3 Zrotation Yrotation Xrotation
                      JOINT LeftHandRing3
                      {
                        OFFSET 4.350578 3e-06 0.0
                        CHANNELS 3 Zrotation Yrotation Xrotation
                        JOINT LeftHandRing4
                        {
                          OFFSET 2.651321 2e-06 -7e-06
                          CHANNELS 3 Zrotation Yrotation Xrotation
                          JOINT LeftHandRingEnd
                          {
                            OFFSET 1.937663 1e-06 -4e-06
                            CHANNELS 3 Zrotation Yrotation Xrotation
                          }
                        }
                      }
                    }
                  }
                  JOINT LeftHandPinky1
                  {
                    OFFSET 2.865315 -1.525436 0.575687
                    CHANNELS 3 Zrotation Yrotation Xrotation
                    JOINT LeftHandPinky2
                    {
                      OFFSET 5.54936 1e-06 -8e-06
                      CHANNELS 3 Zrotation Yrotation Xrotation
                      JOINT LeftHandPinky3
                      {
                        OFFSET 3.070974 0.0 -4e-06
                        CHANNELS 3 Zrotation Yrotation Xrotation
                        JOINT LeftHandPinky4
                        {
                          OFFSET 1.549672 1e-06 0.0
                          CHANNELS 3 Zrotation Yrotation Xrotation
                          JOINT LeftHandPinkyEnd
                          {
                            OFFSET 1.952123 0.0 0.0
                            CHANNELS 3 Zrotation Yrotation Xrotation
                          }
                        }
                      }
                    }
                  }
                }
              }
            }
          }
          JOINT RightShoulder
          {
            OFFSET 23.161716 5.296122 -1.380114
            CHANNELS 3 Zrotation Yrotation Xrotation
            JOINT RightArm
            {
              OFFSET -16.027195 -2e-06 1.1e-05
              CHANNELS 3 Zrotation Yrotation Xrotation
              JOINT RightForeArm
              {
                OFFSET -28.736639 4e-06 2e-06
                CHANNELS 3 Zrotation Yrotation Xrotation
                JOINT RightHand
                {
                  OFFSET -27.133619 6e-06 0.0
                  CHANNELS 3 Zrotation Yrotation Xrotation
                  JOINT RightHandThumb1
                  {
                    OFFSET -2.274328 -3.351035 -0.83067
                    CHANNELS 3 Zrotation Yrotation Xrotation
                    JOINT RightHandThumb2
                    {
                      OFFSET -4.703594 -3e-06 2e-06
                      CHANNELS 3 Zrotation Yrotation Xrotation
                      JOINT RightHandThumb3
                      {
                        OFFSET -2.794935 -4e-06 -3e-06
                        CHANNELS 3 Zrotation Yrotation Xrotation
                        JOINT RightHandThumbEnd
                        {
                          OFFSET -3.183852 4e-06 1e-06
                          CHANNELS 3 Zrotation Yrotation Xrotation
                        }
                      }
                    }
                  }
                  JOINT RightHandIndex1
                  {
                    OFFSET -3.253496 -2.33755 -0.127667
                    CHANNELS 3 Zrotation Yrotation Xrotation
                    JOINT RightHandIndex2
                    {
                      OFFSET -6.344434 0.0 0.0
                      CHANNELS 3 Zrotation Yrotation Xrotation
                      JOINT RightHandIndex3
                      {
                        OFFSET -3.654871 0.0 -8e-06
                        CHANNELS 3 Zrotation Yrotation Xrotation
                        JOINT RightHandIndex4
                        {
                          OFFSET -2.327586 -1e-06 0.0
                          CHANNELS 3 Zrotation Yrotation Xrotation
                          JOINT RightHandIndexEnd
                          {
                            OFFSET -2.770001 3e-06 8e-06
                            CHANNELS 3 Zrotation Yrotation Xrotation
                          }
                        }
                      }
                    }
                  }
                  JOINT RightHandMiddle1
                  {
                    OFFSET -3.168223 -0.944764 0.411762
                    CHANNELS 3 Zrotation Yrotation Xrotation
                    JOINT RightHandMiddle2
                    {
                      OFFSET -6.266691 -1e-06 -4e-06
                      CHANNELS 3 Zrotation Yrotation Xrotation
                      JOINT RightHandMiddle3
                      {
                        OFFSET -4.348901 0.0 0.0
                        CHANNELS 3 Zrotation Yrotation Xrotation
                        JOINT RightHandMiddle4
                        {
                          OFFSET -3.00024 2e-06 -4e-06
                          CHANNELS 3 Zrotation Yrotation Xrotation
                          JOINT RightHandMiddleEnd
                          {
                            OFFSET -2.321477 -4e-06 -4e-06
                            CHANNELS 3 Zrotation Yrotation Xrotation
                          }
                        }
                      }
                    }
                  }
                  JOINT RightHandRing1
                  {
                    OFFSET -2.885654 0.293261 -0.119232
                    CHANNELS 3 Zrotation Yrotation Xrotation
                    JOINT RightHandRing2
                    {
                      OFFSET -6.032835 -1e-06 -4e-06
                      CHANNELS 3 Zrotation Yrotation Xrotation
                      JOINT RightHandRing3
                      {
                        OFFSET -4.33881 0.0 -4e-06
                        CHANNELS 3 Zrotation Yrotation Xrotation
                        JOINT RightHandRing4
                        {
                          OFFSET -2.654903 -4e-06 -4e-06
                          CHANNELS 3 Zrotation Yrotation Xrotation
                          JOINT RightHandRingEnd
                          {
                            OFFSET -1.935122 0.0 4e-06
                            CHANNELS 3 Zrotation Yrotation Xrotation
                          }
                        }
                      }
                    }
                  }
                  JOINT RightHandPinky1
                  {
                    OFFSET -2.866241 1.503904 -0.60527
                    CHANNELS 3 Zrotation Yrotation Xrotation
                    JOINT RightHandPinky2
                    {
                      OFFSET -5.553177 -2e-06 0.0
                      CHANNELS 3 Zrotation Yrotation Xrotation
                      JOINT RightHandPinky3
                      {
                        OFFSET -3.062664 -1e-06 -4e-06
                        CHANNELS 3 Zrotation Yrotation Xrotation
                        JOINT RightHandPinky4
                        {
                          OFFSET -1.546529 2e-06 4e-06
                          CHANNELS 3 Zrotation Yrotation Xrotation
                          JOINT RightHandPinkyEnd
                          {
                            OFFSET -1.952341 0.0 -4e-06
                            CHANNELS 3 Zrotation Yrotation Xrotation
                          }
                        }
                      }
                    }
                  }
                }
              }
            }
          }
        }
      }
    }
    JOINT LeftLeg
    {
      OFFSET -8.443107 2.567604 10.043214
      CHANNELS 3 Zrotation Yrotation Xrotation
      JOINT LeftShin
      {
        OFFSET 43.229198 1e-06 -1e-06
        CHANNELS 3 Zrotation Yrotation Xrotation
        JOINT LeftFoot
        {
          OFFSET 42.298611 1e-06 1e-06
          CHANNELS 3 Zrotation Yrotation Xrotation
          JOINT LeftToeBase
          {
            OFFSET 14.165858 1e-06 0.0
            CHANNELS 3 Zrotation Yrotation Xrotation
            JOINT LeftToeEnd
            {
              OFFSET 6.7141 -0.234461 0.0
              CHANNELS 3 Zrotation Yrotation Xrotation
            }
          }
        }
      }
    }
    JOINT RightLeg
    {
      OFFSET -8.303923 2.592729 -10.047278
      CHANNELS 3 Zrotation Yrotation Xrotation
      JOINT RightShin
      {
        OFFSET -43.369682 0.0 1e-06
        CHANNELS 3 Zrotation Yrotation Xrotation
        JOINT RightFoot
        {
          OFFSET -42.260784 4e-06 2e-06
          CHANNELS 3 Zrotation Yrotation Xrotation
          JOINT RightToeBase
          {
            OFFSET -14.222245 -2e-06 -1e-06
            CHANNELS 3 Zrotation Yrotation Xrotation
            JOINT RightToeEnd
            {
              OFFSET -6.660062 0.232574 -2e-06
              CHANNELS 3 Zrotation Yrotation Xrotation
            }
          }
        }
      }
    }
  }
}
MOTION
Frames: 4
Frame Time: 0.03333333333333333
0.0 0.0 0.0 0.0 -0.0 0.0 0.050853 100.014542 1.720017 89.708702 -6.004948 91.017807 -3.037558 0.262699 -0.721182 -11.749828 -0.555356 -0.909263 3.788388 1.674366 -3.648621 -11.915703 -5.569095 3.412689 -2.710921 0.054697 4.114502 -22.268206 4.76163 -0.448542 5e-06 0.0 0.0 -0.139537 -0.135309 -0.189054 0.532808 -0.080681 0.005828 0.524971 -0.186457 -0.360511 -21.558594 -58.945736 26.471897 -24.31336 18.397541 -64.309395 20.180603 -2.423814 -1.326002 -5.547406 41.211639 -13.814038 17.636616 -26.322714 52.411179 -19.466658 -14.395596 29.410381 -0.0 -8.774821 1e-06 16.904634 -15.844183 5.488324 -0.609776 -1.795652 -3.889327 -4.807088 -11.046811 -2.93785 1e-06 -20.976011 -0.0 -5.019969 -25.033552 -4.03188 4e-06 0.0 1e-06 -10.634533 -5.686969 -3.565585 10.573271 -17.922945 -3.113899 1e-06 -13.821203 1e-06 -0.501778 -31.181498 -4.027016 -13.076628 -61.264832 8.825412 -13.982712 -7.150197 -2.875039 13.772726 -8.401489 -3.218242 0.34773 -34.211544 0.771653 -0.963028 -17.733366 2.621017 1e-06 -0.0 0.0 -17.346416 -20.095213 -4.20178 21.757555 -1.638376 3.866425 0.0 -6.338821 1e-06 -1.69759 -22.59174 -6.194005 0.0 -5e-06 -2e-06 157.41098 -63.796555 25.652994 -14.360365 17.737038 -55.72662 12.945486 0.802325 0.825479 -32.960854 27.004667 -60.805836 22.182116 -20.375895 49.933308 -16.701807 -16.743528 28.476519 -1e-06 -12.690598 -1e-06 16.608187 -16.187035 2.445861 -0.10592 -1.513853 -4.275879 -5.03904 -5.612871 -2.953556 3e-06 -11.020521 -1e-06 -6.111301 -15.89533 -3.840468 3e-06 1e-06 -1e-06 -10.283369 -5.680287 -4.341838 11.028289 -11.302404 -2.372629 -1.38427 -14.238577 -6.320118 -0.62544 -26.924177 -3.827597 -5.18306 -51.029934 -2.831207 -13.708523 -7.363475 -3.720937 18.141146 -14.052737 -3.242672 6e-06 -18.787266 -1e-06 -0.429709 -8.456041 2.555504 -0.0 -0.0 -0.0 -15.923536 -20.094479 -5.473581 30.41921 -7.190824 1.735927 2e-06 -8.162921 -1e-06 -1.861905 -22.861467 -6.16794 0.0 -3e-06 -1e-06 176.984741 -3.560006 -1.997017 9.512174 -0.134545 0.190244 -81.568771 -3.116874 -5.727939 -5.541699 1.608587 2.169065 -1.0 0.0 -0.0 -0.663662 -2.801809 -1.360501 6.362357 -0.115958 -0.067999 -80.323418 -5.881025 -4.900812 -5.065242 0.898096 1.757873 -1.000001 -0.0 -0.0 
0.0 0.0 0.0 0.0 -0.0 0.0 0.066904 100.006172 1.765994 89.718155 -6.09307 91.054443 -3.007128 0.275083 -0.694614 -11.741297 -0.543055 -0.870789 3.744696 1.668156 -3.584599 -11.985843 -5.714434 3.416976 -2.713897 0.044803 4.195728 -22.583633 4.827968 -0.360599 7e-06 0.0 0.0 -0.135658 -0.129686 -0.184717 0.545308 -0.074883 0.009194 0.528707 -0.18055 -0.353409 -21.933786 -59.052288 26.758177 -24.396338 17.902018 -64.359863 20.515154 -2.369355 -1.323693 -5.775553 41.262299 -14.07716 17.636625 -26.322731 52.41119 -19.466665 -14.395598 29.410393 -2e-06 -8.774821 0.0 16.949667 -15.849888 5.487071 -0.609775 -1.795655 -3.889327 -4.807089 -11.046808 -2.93785 2e-06 -20.976015 -0.0 -5.019971 -25.033554 -4.031882 7e-06 1e-06 1e-06 -10.634533 -5.686969 -3.565587 10.573272 -17.922949 -3.113902 2e-06 -13.821206 2e-06 -0.501776 -31.181501 -4.027016 -13.083737 -61.273014 8.851524 -13.982712 -7.150198 -2.875043 13.772727 -8.401491 -3.218241 0.347733 -34.211552 0.771656 -0.963029 -17.73337 2.621022 -1e-06 0.0 0.0 -17.346418 -20.095219 -4.20178 21.757557 -1.638375 3.866427 1e-06 -6.338823 -0.0 -1.697591 -22.591745 -6.194008 1e-06 -5e-06 -3e-06 157.215103 -63.799583 25.704744 -14.420303 17.234758 -56.19138 13.143833 0.686236 0.85227 -32.985371 27.157059 -60.732117 22.182106 -20.375895 49.933327 -16.701811 -16.743528 28.476532 -1e-06 -12.690597 -0.0 16.673128 -16.205648 2.47573 -0.105919 -1.513855 -4.275881 -5.03904 -5.612871 -2.953557 3e-06 -11.020523 -3e-06 -6.111296 -15.895329 -3.84047 1e-06 -0.0 -1e-06 -10.283371 -5.680288 -4.34184 11.02829 -11.302404 -2.372633 -1.384268 -14.238581 -6.320122 -0.625435 -26.924183 -3.827603 -5.194465 -51.111877 -2.835413 -13.708523 -7.363476 -3.720938 18.141146 -14.052736 -3.242676 6e-06 -18.787268 -3e-06 -0.429712 -8.456041 2.555504 -0.0 -0.0 -0.0 -15.923532 -20.094482 -5.473586 30.419207 -7.190823 1.735924 2e-06 -8.162922 -1e-06 -1.861903 -22.861467 -6.167941 0.0 -3e-06 -1e-06 176.870773 -3.539026 -1.971621 9.614764 -0.136849 0.179064 -81.634712 -3.128296 -5.665624 -5.521519 1.619864 2.169342 -1.000001 0.0 -0.0 -0.734376 -2.830848 -1.435324 6.406387 -0.110628 -0.079591 -80.397163 -5.811294 -4.812286 -5.082798 0.893367 1.755204 -1.000002 -0.0 -0.0 
0.0 0.0 0.0 0.0 -0.0 0.0 0.084315 100.003838 1.804038 89.729416 -6.178516 91.138046 -2.983813 0.277531 -0.694335 -11.752752 -0.534121 -0.84477 3.719262 1.655148 -3.526398 -11.954736 -5.828733 3.408519 -2.69959 0.02852 4.301741 -22.943733 4.838913 -0.254771 5e-06 0.0 0.0 -0.127917 -0.127348 -0.185043 0.565107 -0.073492 0.006466 0.537181 -0.176505 -0.350448 -22.260042 -59.109749 26.98447 -24.422731 17.394215 -64.337349 20.816261 -2.343241 -1.290837 -5.880797 41.283688 -14.219814 17.636635 -26.32272 52.411182 -19.46666 -14.395594 29.410385 -1e-06 -8.774822 -1e-06 16.952158 -15.877742 5.500497 -0.609778 -1.795655 -3.889326 -4.807089 -11.046809 -2.937855 4e-06 -20.976015 -3e-06 -5.019966 -25.033556 -4.031885 7e-06 0.0 0.0 -10.634533 -5.686974 -3.565589 10.573272 -17.922947 -3.113901 3e-06 -13.821205 1e-06 -0.501772 -31.181498 -4.027018 -13.148732 -61.291279 8.88579 -13.982714 -7.150202 -2.87504 13.772726 -8.401491 -3.218241 0.347737 -34.211544 0.77165 -0.963027 -17.733366 2.621017 0.0 -1e-06 0.0 -17.346416 -20.095221 -4.201787 21.757557 -1.638375 3.866428 1e-06 -6.338822 -0.0 -1.697588 -22.591745 -6.194009 2e-06 -4e-06 -4e-06 157.106949 -63.797874 25.759804 -14.550488 16.767637 -56.703129 13.268727 0.543885 0.883989 -32.946751 27.31506 -60.607533 22.182121 -20.375898 49.933327 -16.701811 -16.74353 28.476532 -2e-06 -12.6906 -1e-06 16.71191 -16.240158 2.512677 -0.10592 -1.513858 -4.275883 -5.039042 -5.612871 -2.953556 3e-06 -11.020525 -2e-06 -6.1113 -15.895334 -3.840472 -1e-06 -1e-06 -1e-06 -10.283372 -5.68029 -4.341841 11.028294 -11.302404 -2.372632 -1.384268 -14.238585 -6.320122 -0.62544 -26.924192 -3.8276 -5.221041 -51.167362 -2.782321 -13.708526 -7.36348 -3.72094 18.141148 -14.052739 -3.242674 5e-06 -18.787271 -2e-06 -0.429712 -8.456043 2.555504 0.0 0.0 -0.0 -15.923538 -20.094486 -5.473586 30.419214 -7.190827 1.735928 3e-06 -8.162926 -1e-06 -1.861904 -22.861473 -6.167942 0.0 -3e-06 -1e-06 176.789047 -3.514841 -1.876476 9.630926 -0.137073 0.159596 -81.644508 -3.157034 -5.602583 -5.497102 1.614741 2.165899 -1.0 0.0 -0.0 -0.773948 -2.86264 -1.611232 6.395692 -0.10871 -0.084276 -80.428612 -5.723506 -4.731475 -5.097911 0.89715 1.754285 -1.000001 -0.0 -0.0 
0.0 0.0 0.0 0.0 -0.0 0.0 0.098936 100.006744 1.846204 89.749657 -6.242921 91.23938 -2.964455 0.257217 -0.723601 -11.771816 -0.53067 -0.836537 3.709781 1.635202 -3.482977 -11.851985 -5.915385 3.422029 -2.6837 0.032029 4.400368 -23.313974 4.848744 -0.117837 7e-06 -0.0 0.0 -0.121299 -0.128538 -0.190051 0.57318 -0.078691 -0.004077 0.53875 -0.173115 -0.350126 -22.597448 -59.100433 27.271879 -24.470003 16.858183 -64.359367 21.126284 -2.395422 -1.267488 -5.820986 41.235958 -14.151659 17.636627 -26.322729 52.411182 -19.466665 -14.395598 29.410389 -1e-06 -8.774823 -1e-06 16.948013 -15.892573 5.507524 -0.609775 -1.795655 -3.889326 -4.807087 -11.046807 -2.937851 7e-06 -20.976015 -2e-06 -5.019966 -25.033548 -4.03188 5e-06 0.0 1e-06 -10.634532 -5.68697 -3.565588 10.573276 -17.922951 -3.113902 3e-06 -13.821205 2e-06 -0.501774 -31.181498 -4.027013 -13.240034 -61.314144 8.918293 -13.982711 -7.150197 -2.875044 13.772731 -8.401491 -3.218242 0.34774 -34.211544 0.771656 -0.963027 -17.73337 2.621023 0.0 -1e-06 -1e-06 -17.34642 -20.095211 -4.201783 21.757563 -1.638379 3.866429 3e-06 -6.338822 0.0 -1.697587 -22.591742 -6.194006 -0.0 -4e-06 -2e-06 157.08812 -63.816902 25.806185 -14.768771 16.330109 -57.306129 13.390079 0.358631 0.909956 -32.804512 27.4848 -60.244572 22.182116 -20.375896 49.933308 -16.701809 -16.74353 28.476526 -3e-06 -12.690599 -0.0 16.721565 -16.255669 2.537995 -0.10592 -1.513857 -4.275879 -5.03904 -5.61287 -2.953557 5e-06 -11.020521 -1e-06 -6.111299 -15.895328 -3.84047 2e-06 -1e-06 0.0 -10.283367 -5.680286 -4.341838 11.02829 -11.302404 -2.372631 -1.384267 -14.238576 -6.320118 -0.625437 -26.924183 -3.827596 -5.246465 -51.19672 -2.70712 -13.708523 -7.363474 -3.720939 18.141151 -14.052743 -3.242674 8e-06 -18.78727 -1e-06 -0.42971 -8.456041 2.555503 1e-06 0.0 -0.0 -15.923532 -20.094477 -5.473583 30.41921 -7.190827 1.735923 4e-06 -8.162925 -1e-06 -1.861901 -22.861467 -6.167938 -1e-06 -4e-06 -1e-06 176.803513 -3.481301 -1.752541 9.49476 -0.135491 0.145327 -81.583786 -3.1962 -5.569875 -5.486614 1.596751 2.162589 -0.999999 -0.0 -0.0 -0.759882 -2.893459 -1.812649 6.333364 -0.108126 -0.086125 -80.426453 -5.666718 -4.676907 -5.084124 0.902718 1.754134 -1.000001 0.0 0.0 
